<svg width="64" height="64" viewBox="0 0 256 256" fill="none" xmlns="http://www.w3.org/2000/svg">
<path d="M216 124C215.322 124 214.655 124.173 214.062 124.502C213.469 124.831 212.969 125.305 212.61 125.88C206.892 135.113 200.327 143.794 193 151.81L174.38 53.81C174.001 51.7615 173.095 49.8469 171.752 48.2547C170.409 46.6624 168.674 45.4473 166.718 44.7289C164.763 44.0104 162.654 43.8135 160.599 44.1573C158.545 44.5012 156.615 45.374 155 46.69L130.5 67.13C129.801 67.6903 128.934 67.9997 128.039 68.0088C127.143 68.0178 126.27 67.726 125.56 67.18L100.9 46.64C99.2829 45.3461 97.3585 44.4928 95.3139 44.163C93.2693 43.8332 91.1742 44.0381 89.2323 44.7579C87.2904 45.4777 85.5678 46.6878 84.2321 48.2705C82.8964 49.8533 81.9931 51.7547 81.61 53.79L63 151.81C55.6764 143.793 49.1147 135.113 43.4 125.88C43.0397 125.304 42.5385 124.828 41.9436 124.499C41.3487 124.171 40.6798 123.999 40 124C30.4522 124 21.2955 127.793 14.5442 134.544C7.79285 141.295 4 150.452 4 160C4 169.548 7.79285 178.705 14.5442 185.456C21.2955 192.207 30.4522 196 40 196H216C225.548 196 234.705 192.207 241.456 185.456C248.207 178.705 252 169.548 252 160C252 150.452 248.207 141.295 241.456 134.544C234.705 127.793 225.548 124 216 124ZM89.48 55.28C89.6052 54.6071 89.9009 53.9776 90.3389 53.4517C90.7769 52.9258 91.3426 52.521 91.9817 52.2762C92.6209 52.0314 93.3121 51.9547 93.9894 52.0534C94.6667 52.1521 95.3073 52.4229 95.85 52.84L120.5 73.38C122.64 75.0907 125.301 76.0176 128.041 76.0066C130.78 75.9957 133.434 75.0477 135.56 73.32L160.09 52.89C160.625 52.4509 161.267 52.1613 161.95 52.0507C162.633 51.94 163.334 52.0122 163.98 52.26C164.628 52.4977 165.203 52.8989 165.65 53.4245C166.096 53.9502 166.4 54.5825 166.53 55.26L181.11 132H74.89L89.48 55.28ZM40 188C32.7541 188.009 25.7868 185.209 20.5625 180.188C15.3383 175.167 12.2639 168.316 11.9855 161.076C11.7071 153.835 14.2464 146.769 19.0698 141.361C23.8931 135.954 30.6248 132.627 37.85 132.08C58.3 164 80.59 180 97.9 188H40ZM128 188C127.73 188 116.22 187.79 100.23 180.16C89.0207 174.678 78.7502 167.455 69.8 158.76L73.37 140H182.63L186.19 158.76C177.24 167.455 166.969 174.678 155.76 180.16C139.77 187.79 128.26 188 128 188ZM216 188H158.1C175.41 180 197.7 164 218.15 132.08C225.375 132.627 232.107 135.954 236.93 141.361C241.754 146.769 244.293 153.835 244.015 161.076C243.736 168.316 240.662 175.167 235.437 180.188C230.213 185.209 223.246 188.009 216 188Z" fill="white"/>
</svg>
