<svg width="64" height="64" viewBox="0 0 64 64" fill="none" xmlns="http://www.w3.org/2000/svg">
<path d="M10.2131 15.655C10.8741 14.837 10.4811 12.822 10.4811 12.822C10.4811 12.822 9.18312 13.866 8.59612 16.057C8.59612 16.058 9.55412 16.472 10.2131 15.655ZM4.34012 23.041C4.27112 23.577 4.71512 25.959 5.18512 24.414C5.65312 22.867 4.34012 23.041 4.34012 23.041Z" fill="white"/>
<path d="M59.182 45.825C58.416 45.334 57.373 44.499 56.33 43.186C56.404 41.464 55.653 40.35 55.543 40.201L55.223 39.764L54.698 39.641C54.533 39.603 54.363 39.582 54.194 39.556C53.7107 38.4261 53.3276 37.2559 53.049 36.059L52.824 35.103C53.2627 33.2496 53.2259 31.3154 52.717 29.48C54.694 29.404 56.549 29.921 55.539 32.467C53.408 37.838 62 42.332 62 42.332C62 42.332 57.274 34.811 60.854 29.217C62.992 25.872 56.11 23.916 51.44 26.67C50.106 24.664 48.128 23.483 45.872 23.482C45.6066 23.482 45.3396 23.4987 45.071 23.532C43.745 23.691 42.434 23.881 41.165 24.062C38.499 24.445 35.979 24.808 33.965 24.808C30.439 24.808 30.068 23.656 29.909 23.164C29.849 22.98 29.787 22.808 29.726 22.627L30.603 23.101C30.483 20.968 28.774 18.408 28.774 18.408L30.524 18.679C30.122 16.396 27.097 14.449 27.097 14.449L28.532 14.188C27.461 12.338 24.446 11.083 24.446 11.083L26.34 10.96C25.386 9.657 21.941 8.699 21.941 8.699L23.4 7.747C20.206 6.458 17.663 7.103 17.663 7.103L18.328 5.665C16.015 5.528 14.196 6.571 13.345 7.176C12.11 5.002 10.725 4 10.725 4C10.636 4.549 10.605 5.036 10.596 5.484C9.63296 4.939 8.91196 4.771 8.77696 4.743L7.15196 4.424L7.03696 6.09C6.90696 7.959 7.37996 9.612 7.66496 10.412C7.07896 12.533 4.72096 17.434 3.41696 20.146C2.68096 21.676 2.28996 22.494 2.14196 22.885C1.36896 24.925 3.93096 26.981 5.52596 28.025L6.01896 28.347L6.59596 28.237C6.83696 28.191 7.04496 28.109 7.22596 28.01C7.41396 28.24 7.66396 28.416 7.95096 28.514C8.14196 28.578 8.34196 28.613 8.54296 28.613C9.59296 28.613 10.272 27.785 10.929 26.985C11.376 26.441 11.882 25.824 12.402 25.537C13.502 24.9297 14.4196 24.3183 15.155 23.703C14.9411 24.3155 14.6817 24.9112 14.379 25.485C12.231 29.458 13.36 34.638 14.034 36.916C12.081 37.998 8.96996 38.784 7.77696 39.022L6.80696 39.216L6.62196 40.196C4.60896 50.938 8.57996 54.86 11.125 56.242C12.5 56.986 13.642 57.1 13.768 57.111L15.164 57.23L15.342 55.828L15.891 51.507L16.107 49.805L14.405 49.844C14.328 49.844 13.714 49.839 13.074 49.666C12.595 49.536 11.995 49.29 11.841 48.844C11.534 47.959 11.822 45.9 12.21 44.222C12.7753 44.262 13.333 44.282 13.883 44.282C14.689 44.282 15.451 44.233 16.189 44.161C16.1111 44.2548 16.0311 44.3468 15.949 44.437C14.871 45.579 14.962 46.722 15.111 47.302C15.422 48.505 16.447 49.33 17.269 49.587C17.794 49.749 21.072 50.087 27.015 50.594L27.62 50.645L28.085 50.248C28.093 50.241 29.134 49.364 30.384 48.873C30.908 48.666 31.378 48.562 31.78 48.562C31.848 48.562 31.916 48.5653 31.984 48.572L34.516 48.821L33.455 46.487C33.317 46.183 32.047 43.486 30.017 42.459L29.25 42.07L28.539 42.556C28.514 42.574 27.91 42.987 27.156 43.56C26.709 43.902 26.131 44.359 25.594 44.834L25.15 44.703C26.046 43.753 27.427 42.493 29.311 41.248C29.783 41.215 30.262 41.192 30.759 41.192C33.004 41.192 35.197 41.515 37.581 41.929C40.079 46.45 43.688 47.425 46.333 47.425C47.584 47.425 48.754 47.209 49.739 46.933C48.739 52.107 50.307 55.738 51.466 57.583C52.269 58.857 53.011 59.533 53.093 59.606L53.539 60L54.128 59.974C56.654 59.861 57.303 56.311 57.441 55.226L57.548 54.382L56.878 53.865C56.5728 53.6309 56.2908 53.3681 56.036 53.08C55.4049 52.365 55.0062 51.4749 54.893 50.528C55.327 50.957 55.772 51.38 56.245 51.777C57.0132 52.4325 57.8324 53.0257 58.695 53.551L60.167 54.44L60.806 52.835C60.843 52.743 61.699 50.567 61.76 48.054L61.788 46.915L60.703 46.599C60.705 46.599 60.075 46.4 59.182 45.825ZM52.575 39.476L52.211 39.487C51.995 39.496 51.782 39.507 51.569 39.507C51.242 39.507 50.925 39.489 50.574 39.363C51.0967 38.7976 51.5447 38.1674 51.907 37.488C52.109 38.196 52.334 38.855 52.575 39.476ZM6.32196 26.787C6.32196 26.787 3.04296 24.641 3.50896 23.411C3.94296 22.26 8.04596 14.3 9.03296 10.944L8.98996 11.09C9.42496 11.505 10.379 12.014 11.2 12.821C11.717 13.33 12.288 14.005 12.885 14.836C12.34 15.624 10.691 17.765 6.61296 21.605C5.98696 20.775 5.41896 20.222 5.09596 20.036L4.78796 20.678C5.01696 20.817 5.24296 20.977 5.67796 21.416C6.29996 22.045 7.44796 23.77 8.11296 25.636C8.19596 25.595 8.33696 25.592 8.46796 25.6C7.15896 25.68 6.96496 26.664 6.32196 26.787ZM11.7 24.242C10.205 25.066 9.28496 27.137 8.54396 27.137C8.50144 27.1367 8.45925 27.1296 8.41896 27.116C8.04596 26.99 8.88496 25.857 8.76496 25.635L8.77896 25.637C8.34032 24.4263 7.75531 23.2737 7.03696 22.205C10.879 18.595 12.619 16.452 13.322 15.476C14.181 16.761 15.075 18.347 15.921 20.229C15.7 21.182 14.736 22.563 11.7 24.242ZM22.604 45.486L25.982 46.487C26.502 45.964 27.202 45.388 27.834 44.899C28.342 45.467 28.986 46.344 29.607 47.604C28.7206 47.9989 27.8904 48.5093 27.138 49.122C27.138 49.122 18.336 48.372 17.702 48.177C17.07 47.98 15.751 46.787 17.01 45.453C17.315 45.13 17.769 44.547 18.276 43.861C20.066 43.527 21.701 43.042 23.297 42.56C24.2493 42.2657 25.2082 41.9929 26.173 41.742C23.721 43.783 22.604 45.486 22.604 45.486ZM33.728 39.893C32.743 39.7837 31.753 39.7249 30.762 39.717C29.168 39.717 27.557 39.874 25.928 40.281C22.1 41.237 18.668 42.804 13.884 42.804C13.009 42.804 12.088 42.751 11.111 42.633C11.111 42.633 9.74696 47.269 10.46 49.329C10.813 50.349 11.793 50.847 12.695 51.09L12.75 51.102C12.484 51.973 12.12 53.348 11.872 54.968C11.8546 54.9587 11.837 54.95 11.819 54.942C9.48996 53.679 6.24396 50.163 8.05996 40.471C8.05996 40.471 13.378 39.412 15.778 37.533C15.778 37.533 13.181 30.782 15.663 26.193C16.569 24.515 17.715 21.524 16.464 19.628L16.47 19.62C15.803 18.151 15.246 16.769 14.382 15.516C13.5919 14.3593 12.6931 13.2808 11.698 12.295C10.713 11.323 9.64996 10.732 9.19396 10.305C9.19396 10.305 8.34096 8.422 8.49596 6.193C8.49596 6.193 10.417 6.572 12.264 8.82C12.264 8.82 12.874 8.66 13.88 8.66C17.064 8.661 24.209 10.264 28.515 23.622C28.634 23.99 28.812 24.298 29.017 24.579L28.986 24.567C28.986 24.567 31.282 27.089 29.888 29.267C28.564 31.337 30.989 34.571 34.838 35.357C34.855 36.09 34.747 37.799 33.728 39.893ZM51.93 44.479C51.93 44.479 49.385 45.95 46.336 45.95C43.669 45.95 40.615 44.824 38.543 40.6C37.6421 40.4399 36.739 40.2926 35.834 40.158C35.971 39.967 36.633 38.883 36.969 35.53C38.2272 35.4702 39.462 35.1683 40.606 34.641C45.259 32.541 41.088 27.476 42.723 25.332C43.556 25.215 44.397 25.1 45.244 24.997C45.4573 24.9717 45.666 24.959 45.87 24.959C47.724 24.96 49.234 25.985 50.25 27.518L50.247 27.52C50.674 28.1724 51.0069 28.8817 51.236 29.627H51.238C52.281 32.953 51.549 37.217 48.179 39.465C49.497 40.777 50.531 40.983 51.569 40.983C52.045 40.983 52.521 40.94 53.025 40.94C53.447 40.94 53.89 40.969 54.367 41.081C54.367 41.081 55.296 42.345 54.658 44.307C54.088 46.068 52.012 50.508 54.822 53.905C54.453 54.735 53.743 55.995 52.651 56.707C51.322 54.544 49.823 50.439 51.93 44.479ZM54.961 48.449C55.13 47.443 55.458 46.433 55.803 45.474C55.866 45.299 55.912 45.159 55.964 45.011C56.831 45.935 57.682 46.612 58.395 47.07L58.549 47.164C58.214 48.834 57.753 49.992 57.346 50.772C57.294 50.728 57.238 50.69 57.186 50.645C56.38 49.966 55.651 49.216 54.961 48.449Z" fill="white"/>
</svg>
