<svg width="64" height="64" viewBox="0 0 64 64" fill="none" xmlns="http://www.w3.org/2000/svg">
<path d="M10.213 18.436C10.874 17.632 10.481 15.653 10.481 15.653C10.481 15.653 9.18297 16.678 8.59497 18.832C8.59497 18.831 9.55397 19.237 10.213 18.436ZM4.33897 25.691C4.27097 26.217 4.71397 28.557 5.18497 27.04C5.65297 25.521 4.33897 25.691 4.33897 25.691Z" fill="white"/>
<path d="M59.1829 48.074C58.4159 47.592 57.3729 46.771 56.3309 45.482C56.4049 43.791 55.6539 42.696 55.5439 42.549L55.2229 42.119L54.6969 42C54.5329 41.962 54.3629 41.942 54.1939 41.916C53.7103 40.8071 53.3268 39.6572 53.0479 38.48L52.8229 37.541C53.2635 35.7215 53.2266 33.8191 52.7159 32.018C54.6939 31.943 56.5479 32.452 55.5379 34.953C53.4079 40.228 61.9999 44.643 61.9999 44.643C61.9999 44.643 57.2749 37.254 60.8539 31.758C62.9929 28.473 56.1099 26.551 51.4409 29.256C50.2939 27.561 48.6649 26.486 46.7969 26.215C47.9279 24.51 47.8909 22.66 46.7719 20.286L46.8769 20.187L46.5899 19.884L46.4079 19.524L46.2869 19.578C45.1089 18.426 39.8789 13.701 33.5699 14.016L33.1029 12.874C33.6969 12.146 34.0619 11.137 34.0789 9.89704C34.7229 9.92704 35.1409 9.81004 35.1559 9.41804C35.3179 5.48604 32.1299 2.16904 28.0359 2.00404C23.9419 1.84104 20.4909 4.89404 20.3269 8.82504C20.3269 8.84304 20.3369 8.85404 20.3389 8.87104L20.3329 8.87304C19.8279 9.23504 18.4469 10.428 18.4549 11.06C16.8213 10.4427 15.0913 10.1194 13.3449 10.105C12.1099 7.96804 10.7239 6.98404 10.7239 6.98404C10.6454 7.46623 10.6023 7.95354 10.5949 8.44204C9.63294 7.90804 8.91194 7.74204 8.77694 7.71504L7.15194 7.40104L7.03694 9.03804C6.90794 10.874 7.38094 12.499 7.66594 13.284C7.07994 15.368 4.72194 20.183 3.41794 22.847C2.68194 24.35 2.29093 25.154 2.14293 25.537C1.36993 27.542 3.93194 29.561 5.52794 30.587L6.01994 30.903L6.59594 30.795C6.83694 30.75 7.04494 30.669 7.22694 30.572C7.41494 30.799 7.66494 30.971 7.95194 31.067C8.14394 31.131 8.3416 31.1634 8.54494 31.164C9.59494 31.164 10.2739 30.351 10.9309 29.565C11.3779 29.03 11.8839 28.424 12.4039 28.142C13.5059 27.544 14.4219 26.946 15.1569 26.34C14.8539 27.208 14.4739 27.92 14.3809 28.091C12.2329 31.993 13.3619 37.083 14.0349 39.32C12.0819 40.383 8.97193 41.155 7.77893 41.389L6.80794 41.579L6.62394 42.543C4.60894 53.098 8.57994 56.95 11.1249 58.308C12.5009 59.039 13.6429 59.152 13.7689 59.162L15.1649 59.279L15.3439 57.901L15.8929 53.656L16.1089 51.983L14.4079 52.022C13.9593 52.0163 13.5128 51.9575 13.0779 51.847C12.5989 51.719 11.9979 51.478 11.8439 51.039C11.5369 50.17 11.8249 48.146 12.2129 46.498C12.7776 46.5367 13.3356 46.5564 13.8869 46.557C14.6929 46.557 15.4549 46.509 16.1919 46.438C16.1143 46.5304 16.0343 46.6208 15.9519 46.709C14.8749 47.831 14.9659 48.954 15.1139 49.524C15.4249 50.706 16.4509 51.516 17.2719 51.768C17.7969 51.927 21.0749 52.259 27.0179 52.757L27.6239 52.807L28.0879 52.416C28.0959 52.41 29.1379 51.548 30.3869 51.065C30.9119 50.862 31.3809 50.76 31.7829 50.76C31.8516 50.76 31.9199 50.7634 31.9879 50.77L34.5199 51.014L33.4599 48.721C33.3219 48.423 32.0499 45.773 30.0209 44.764L29.2529 44.382L28.5419 44.86C28.5169 44.878 27.9139 45.283 27.1599 45.846C26.7119 46.182 26.1339 46.631 25.5979 47.098L25.1529 46.969C26.0489 46.035 27.4299 44.798 29.3149 43.575C29.7859 43.542 30.2659 43.52 30.7619 43.52C31.3419 43.52 31.9179 43.551 32.4959 43.592C31.9059 44.012 31.5659 44.347 31.4939 44.592C31.2749 45.317 31.8259 45.864 32.4319 46.066L32.5339 46.087C32.5629 46.091 33.2669 46.172 34.3779 46.172C35.4279 46.172 36.9489 46.094 38.6049 45.774C41.0009 48.901 44.0329 49.643 46.3379 49.643C47.5889 49.643 48.7589 49.431 49.7429 49.16C48.7429 54.243 50.3109 57.81 51.4699 59.623C52.2729 60.875 53.0159 61.539 53.0969 61.611L53.5389 62L54.1289 61.974C56.6539 61.863 57.3029 58.375 57.4419 57.31L57.5489 56.481L56.8799 55.973C56.5751 55.7434 56.2928 55.4853 56.0369 55.202C55.4071 54.5039 55.008 53.6284 54.8939 52.695C55.3289 53.117 55.7739 53.532 56.2459 53.923C57.0259 54.576 57.8529 55.164 58.6969 55.666L60.1679 56.539L60.8069 54.962C60.8439 54.871 61.6999 52.734 61.7619 50.265L61.7889 49.147L60.7049 48.835C60.7049 48.834 60.0759 48.64 59.1829 48.074ZM52.5759 41.837C52.4549 41.841 52.3299 41.842 52.2109 41.847C51.9959 41.856 51.7829 41.867 51.5699 41.867C51.2429 41.867 50.9249 41.849 50.5739 41.726C51.0965 41.172 51.5449 40.5525 51.9079 39.883C52.1089 40.58 52.3339 41.228 52.5759 41.837ZM44.6499 27.13C42.4609 29.046 36.7929 31.059 36.7359 31.079L36.1629 31.281L36.4759 31.794C37.4529 33.397 37.7629 34.368 37.8629 34.829C37.4939 35.111 36.6769 35.555 35.1829 35.733C35.0886 35.5542 34.9916 35.3769 34.8919 35.201C34.2219 34.003 33.1009 31.999 33.6459 30.683C34.7229 28.1 39.9129 23.709 40.4909 23.226L45.9319 20.812C47.3539 23.899 46.5329 25.485 44.6499 27.13ZM33.3959 27.032C33.6129 26.86 35.1889 26.009 36.9619 25.069C36.1814 25.8161 35.433 26.5962 34.7189 27.407C34.1595 27.4366 33.5989 27.4326 33.0399 27.395C33.1459 27.258 33.2619 27.147 33.3959 27.032ZM32.7439 26.288C32.4169 26.567 32.1649 26.845 31.9599 27.26C31.5714 27.1905 31.1953 27.0637 30.8439 26.884L34.1369 21.985L38.7939 22.994C36.6469 24.112 33.1149 25.972 32.7439 26.288ZM32.3749 13.597L32.7579 14.665C32.6949 14.764 32.3069 15.188 32.2189 15.315C32.2689 15.111 32.3509 13.809 32.3749 13.597ZM33.7299 14.984C39.1039 14.724 43.8019 18.63 45.3009 20.014L40.1659 22.291L33.6809 20.878L29.9529 26.423H23.1199C23.1479 26.183 23.1669 25.92 23.1679 25.61L23.1729 24.863C24.5779 24.725 27.0759 24.561 28.7719 24.466L29.1529 24.445L30.5019 18.187C32.2859 17.238 33.3609 15.614 33.7299 14.984ZM28.0199 20.673C27.6574 19.9179 27.2586 19.1807 26.8249 18.464C26.9979 18.505 27.1789 18.531 27.3739 18.531C27.9929 18.531 28.6699 18.318 29.5179 18.009L29.2539 19.234L28.0199 20.673ZM28.8139 21.272L28.6409 22.073C28.5829 21.935 28.5379 21.81 28.4759 21.667L28.8139 21.272ZM29.4339 9.03104L29.6729 9.08004C29.6049 9.43604 29.6299 9.82304 29.7919 10.176C30.0649 10.77 30.6689 10.732 30.6689 10.732C30.2819 10.229 30.1879 9.67304 30.2029 9.18804C30.8499 9.32204 31.5009 9.46404 32.1139 9.59304C32.1199 9.60604 32.1199 9.61604 32.1239 9.62904L31.0649 12.489L28.9509 9.46904C29.0829 9.33104 29.2489 9.18104 29.4339 9.03104ZM27.7519 9.49904L30.4869 13.408L31.0119 15.912C31.0119 15.912 30.0919 16.687 29.7389 16.876C29.1979 17.166 27.9429 17.549 27.3729 17.549C26.8029 17.549 26.4189 17.266 26.1259 16.522C25.8319 16.728 25.3089 16.779 25.0989 16.708C24.7589 16.593 24.8279 16.213 24.9839 15.854C25.1409 15.604 25.3019 15.382 25.4079 15.25C25.3239 15.38 25.2159 15.562 25.1179 15.753C24.8919 16.196 25.1079 16.363 25.5879 15.766C25.8149 15.486 26.2529 14.511 26.2529 14.511C26.2529 14.511 24.9529 15.52 24.2499 15.551C24.0019 15.562 24.0049 15.174 23.6189 14.786C23.4739 14.877 23.2149 14.932 22.9489 14.932C22.4029 14.932 21.8309 14.696 22.1739 14.05C22.4029 13.62 22.8319 12.801 22.7229 12.483C22.5769 12.056 22.1779 11.654 21.9349 10.987C23.8519 10.557 26.2009 9.92804 27.7519 9.49904ZM20.9449 11.196C21.1159 11.717 21.3589 12.104 21.5559 12.412C21.6139 12.504 21.6729 12.597 21.7159 12.675L21.6769 12.784C20.9494 12.2687 20.1773 11.8193 19.3699 11.441C19.7619 11.411 20.3019 11.324 20.9449 11.196ZM8.49693 9.13904C8.49693 9.13904 10.4179 9.51104 12.2659 11.72C12.2659 11.72 12.8749 11.563 13.8809 11.563C15.5329 11.563 18.2559 12.015 21.0919 14.259C21.0549 14.652 21.1679 14.959 21.2759 15.131C21.5729 15.613 22.1569 15.89 22.8799 15.907C24.5129 17.669 26.1119 20.141 27.5109 23.556C26.2099 23.635 24.2859 23.763 23.0309 23.89C22.9467 23.7036 22.8295 23.5339 22.6849 23.389C22.3646 23.0729 21.932 22.8967 21.4819 22.899L20.9639 22.897H20.9539C20.5159 22.897 20.1079 23.057 19.8019 23.335C18.6519 23.548 17.9189 24.262 17.7509 25.327C17.4799 25.273 17.2079 25.223 16.9399 25.161C17.0829 24.146 17.0029 23.14 16.4629 22.336L16.4689 22.328C15.8029 20.886 15.2449 19.528 14.3809 18.297C13.5879 17.1602 12.6893 16.1008 11.6969 15.133C10.7119 14.179 9.64794 13.598 9.19293 13.178C9.19493 13.179 8.34193 11.329 8.49693 9.13904ZM22.1729 24.559L22.1669 25.605C22.1599 27.07 22.1599 27.155 20.4369 27.155L20.1029 27.154C18.7079 27.15 18.7139 26.005 18.7139 25.8C18.7199 24.549 19.6319 24.307 20.3269 24.261C20.3861 24.1459 20.476 24.0495 20.5867 23.9824C20.6974 23.9153 20.8245 23.8802 20.9539 23.881H20.9579L21.4789 23.883C21.5691 23.8812 21.6587 23.8973 21.7425 23.9304C21.8264 23.9634 21.9028 24.0129 21.9674 24.0758C22.032 24.1387 22.0834 24.2138 22.1187 24.2968C22.154 24.3797 22.1724 24.4689 22.1729 24.559ZM6.32194 29.371C6.32194 29.371 3.04294 27.264 3.50894 26.055C3.94294 24.924 8.04593 17.104 9.03193 13.808C9.01793 13.857 9.00394 13.908 8.98894 13.952C9.42494 14.36 10.3779 14.859 11.1999 15.653C11.7159 16.153 12.2879 16.816 12.8839 17.632C12.3389 18.405 10.6909 20.509 6.61294 24.281C5.98594 23.466 5.41894 22.923 5.09594 22.739L4.78794 23.369C5.01694 23.506 5.24294 23.663 5.67794 24.095C6.29994 24.713 7.44794 26.408 8.11294 28.241C8.19494 28.201 8.33794 28.198 8.46794 28.206C7.15994 28.283 6.96494 29.25 6.32194 29.371ZM11.6999 26.871C10.2049 27.681 9.28493 29.715 8.54393 29.715C8.50142 29.7147 8.45922 29.7076 8.41893 29.694C8.04593 29.571 8.88494 28.458 8.76494 28.239L8.77993 28.241C8.34045 27.0499 7.75534 25.9176 7.03794 24.87C7.68673 24.2703 8.32712 23.6616 8.95893 23.044C9.55193 23.315 10.6709 23.798 12.3409 24.404C13.0329 24.657 13.7109 24.88 14.3789 25.085C13.7459 25.631 12.8839 26.228 11.6999 26.871ZM14.8789 24.616C14.097 24.3851 13.3223 24.1303 12.5559 23.852C11.4938 23.4708 10.4455 23.0522 9.41294 22.597C11.6339 20.397 12.7839 18.991 13.3209 18.258C14.1799 19.521 15.0749 21.078 15.9209 22.927C15.8109 23.393 15.5169 23.961 14.8789 24.616ZM22.6049 47.741L25.9829 48.724C26.5019 48.21 27.2029 47.645 27.8339 47.164C28.3429 47.723 28.9869 48.584 29.6079 49.821C28.2159 50.412 27.1379 51.312 27.1379 51.312C27.1379 51.312 18.3359 50.575 17.7019 50.383C17.0689 50.189 15.7509 49.018 17.0099 47.707C17.3159 47.39 17.7689 46.816 18.2769 46.144C20.0659 45.816 21.7009 45.338 23.2979 44.866C24.2502 44.5767 25.2087 44.3087 26.1729 44.062C23.7199 46.068 22.6049 47.741 22.6049 47.741ZM30.7609 42.073C29.1669 42.073 27.5569 42.227 25.9269 42.628C22.0989 43.567 18.6669 45.107 13.8839 45.107C13.0089 45.107 12.0869 45.055 11.1109 44.939C11.1109 44.939 9.74694 49.493 10.4609 51.517C10.8129 52.519 11.7929 53.008 12.6949 53.246L12.7499 53.258C12.4839 54.113 12.1199 55.465 11.8729 57.056L11.8189 57.031C9.48994 55.79 6.24394 52.336 8.05994 42.814C8.05994 42.814 13.3779 41.774 15.7789 39.927C15.7789 39.927 13.1809 33.294 15.6639 28.786C16.1019 27.988 16.5929 26.885 16.8449 25.75C17.1469 25.818 17.4349 25.87 17.7269 25.926C17.7859 27.27 18.6999 28.131 20.1019 28.135L20.4379 28.136C21.7409 28.136 22.4439 27.961 22.8109 27.406H29.1679C29.6799 28.051 31.0389 30.043 29.8899 31.807C28.6059 33.778 30.8499 36.818 34.4969 37.704L34.7509 39.058C34.6269 39.898 34.3469 40.999 33.7299 42.245C32.7437 42.1387 31.7528 42.0813 30.7609 42.073ZM34.3769 45.193C33.5159 45.193 32.9079 45.141 32.7149 45.122C32.6239 45.083 32.4169 44.984 32.4339 44.918C32.6519 44.571 34.4979 43.466 36.0819 42.64L36.4059 42.471L35.3369 36.771C36.0339 36.766 37.1719 36.641 38.1329 36.031L38.8839 44.719C37.4027 45.0369 35.8918 45.1958 34.3769 45.193ZM54.8219 56.011C54.4529 56.826 53.7439 58.064 52.6519 58.763C51.3229 56.64 49.8239 52.608 51.9289 46.751C51.9289 46.751 49.3849 48.196 46.3359 48.196C44.2099 48.196 41.8429 47.472 39.9179 45.085L39.2649 37.566C39.7069 37.437 40.1539 37.287 40.6049 37.087C44.2089 35.49 42.5319 32.152 42.3469 29.747C43.4859 29.164 44.5699 28.516 45.3139 27.864C45.4179 27.774 45.4959 27.682 45.5909 27.592C45.6849 27.587 45.7789 27.575 45.8699 27.575C47.7239 27.576 49.2329 28.584 50.2489 30.089L50.2469 30.091C50.6629 30.709 50.9969 31.411 51.2359 32.161H51.2379C52.2799 35.429 51.5479 39.617 48.1789 41.826C49.4959 43.114 50.5309 43.316 51.5689 43.316C52.0439 43.316 52.5199 43.274 53.0249 43.274C53.4469 43.274 53.8889 43.303 54.3669 43.413C54.3669 43.413 55.2959 44.654 54.6569 46.581C54.0879 48.312 52.0119 52.674 54.8219 56.011ZM57.3469 52.935C57.2949 52.892 57.2389 52.855 57.1859 52.81C56.3809 52.142 55.6529 51.406 54.9609 50.653C55.1309 49.665 55.4589 48.673 55.8029 47.73C55.8659 47.559 55.9119 47.42 55.9649 47.276C56.69 48.0464 57.5063 48.7255 58.3959 49.298L58.5489 49.39C58.2149 51.03 57.7539 52.168 57.3469 52.935Z" fill="white"/>
<path d="M24.221 12.981C24.529 12.839 24.614 12.369 24.413 11.931C24.211 11.493 23.798 11.253 23.491 11.394C23.184 11.535 23.259 11.931 23.46 12.37C23.663 12.808 23.914 13.123 24.221 12.981Z" fill="white"/>
</svg>
